<svg width="18" height="18" viewBox="0 0 18 18" fill="none" xmlns="http://www.w3.org/2000/svg">
<path fill-rule="evenodd" clip-rule="evenodd" d="M1.31254 1.48959C0.944351 1.48959 0.645874 1.78806 0.645874 2.15625C0.645874 2.52444 0.944351 2.82292 1.31254 2.82292H3.37353L3.91319 5.5192C3.91612 5.538 3.91985 5.55654 3.92432 5.57479L5.01308 11.0146L5.0132 11.0151C5.10338 11.4685 5.35008 11.8757 5.71016 12.1656C6.06854 12.4541 6.51652 12.608 6.97639 12.6009H13.3011C13.761 12.608 14.209 12.4541 14.5673 12.1656C14.9276 11.8756 15.1743 11.4681 15.2644 11.0146L15.2644 11.0146L15.2654 11.0096L16.3084 5.54045C16.3456 5.34528 16.2938 5.14368 16.1672 4.9906C16.0405 4.83751 15.8522 4.7489 15.6535 4.7489H5.11879L4.57369 2.02541C4.51133 1.71384 4.23774 1.48959 3.91999 1.48959H1.31254ZM6.32068 10.7538L5.38566 6.08223H14.8477L13.9562 10.7569C13.9268 10.9027 13.8472 11.0336 13.7313 11.1269C13.6148 11.2207 13.4691 11.2705 13.3196 11.2676L13.3196 11.2675H13.3068H6.9707V11.2674L6.95793 11.2676C6.80844 11.2705 6.66271 11.2207 6.54624 11.1269C6.42978 11.0332 6.35 10.9015 6.32087 10.7548L6.32068 10.7538ZM5.21043 15.1936C5.21043 14.4657 5.80055 13.8755 6.5285 13.8755C7.25644 13.8755 7.84656 14.4657 7.84656 15.1936C7.84656 15.9216 7.25644 16.5117 6.5285 16.5117C5.80055 16.5117 5.21043 15.9216 5.21043 15.1936ZM12.3804 15.1936C12.3804 14.4657 12.9705 13.8755 13.6985 13.8755C14.4264 13.8755 15.0166 14.4657 15.0166 15.1936C15.0166 15.9216 14.4264 16.5117 13.6985 16.5117C12.9705 16.5117 12.3804 15.9216 12.3804 15.1936Z" fill="#2D3440"/>
</svg>
